# xmcd
#
# Track frame offsets:
#	150
#	14766
#	29730
#	42032
#	62513
#	79034
#	96041
#	114458
#	130799
#	148221
#	162837
#	177306
#	191136
#	208726
#	232612
#	253150
#	268624
#	288718
#	312759
#	331982
#
# Disc length: 4661 seconds
#
# Revision: 1
# Processed by: cddbd v1.5.2PL0 Copyright (c) Steve Scherf et al.
# Submitted via: audiograbber 1.83.01
#
DISCID=23123314
DTITLE=Various Artist - The Americana Agency Sampler 2010
DYEAR=2010
DGENRE=Americana
TTITLE0=Tom Russell - Finding You
TTITLE1=Doug and Telisha Williams - Graveyard Train
TTITLE2=Jonathan Byrd - I Was An Oak Tree
TTITLE3=Terri Hendrix - Hole In My Pocket
TTITLE4=Danny Schmidt - Company Of Friends
TTITLE5=Amy Speace - Dog Days
TTITLE6=Ronny Cox - Catherine
TTITLE7=Sally Barris - My Love Loves The Ocean
TTITLE8=Jimmy Webb - By The Time I Get The Phoenix
TTITLE9=Rita Hosking - Precious Little
TTITLE10=The Waymores feat. Tom Kimmel, Sally Barris, Don Henry - All Kinds Of 
TTITLE10=Kinds
TTITLE11=Michael Johnathon - Winter Song
TTITLE12=Danny Schmidt - Swing Me Down
TTITLE13=Any Speace - Weight Of The World
TTITLE14=Jonathan Byrd - The Law And The Lonesome
TTITLE15=Doug and Telisha Williams - Kitchen Light
TTITLE16=Ronny Cox - Quintanaroo
TTITLE17=Tom Russell - Criminology
TTITLE18=Jimmy Webb - Wichita Lineman
TTITLE19=Terri Hendrix - Wallet
EXTD=
EXTT0=
EXTT1=
EXTT2=
EXTT3=
EXTT4=
EXTT5=
EXTT6=
EXTT7=
EXTT8=
EXTT9=
EXTT10=
EXTT11=
EXTT12=
EXTT13=
EXTT14=
EXTT15=
EXTT16=
EXTT17=
EXTT18=
EXTT19=
PLAYORDER=
